# WaveFront *.obj file (generated by CINEMA 4D)

mtllib ./new-pump-fan.mtl

v -4.29376220703125 -0.09898376464844 0.061279296875
v 1.6075439453125 -0.09898376464844 0.061279296875
v -4.29376220703125 -1.35875511169434 0.061279296875
v 1.6075439453125 -1.35875511169434 0.061279296875
v -4.29376220703125 -1.11816024780273 -0.67919921875
v 1.6075439453125 -1.11816024780273 -0.67919921875
v -4.29376220703125 -0.4882755279541 -1.1368408203125
v 1.6075439453125 -0.4882755279541 -1.1368408203125
v -4.29376220703125 0.29030609130859 -1.1368408203125
v 1.6075439453125 0.29030609130859 -1.1368408203125
v -4.29376220703125 0.92019081115723 -0.67919921875
v 1.6075439453125 0.92019081115723 -0.67919921875
v -4.29376220703125 1.16078758239746 0.061279296875
v 1.6075439453125 1.16078758239746 0.061279296875
v -4.29376220703125 0.92019081115723 0.8017578125
v 1.6075439453125 0.92019081115723 0.8017578125
v -4.29376220703125 0.29030609130859 1.2593994140625
v 1.6075439453125 0.29030609130859 1.2593994140625
v -4.29376220703125 -0.4882755279541 1.2593994140625
v 1.6075439453125 -0.4882755279541 1.2593994140625
v -4.29376220703125 -1.11816024780273 0.8017578125
v 1.6075439453125 -1.11816024780273 0.8017578125
# 22 vertices

vn -1 0 0
vn 0 -1 0
vn 0 -0.80901300907135 -0.58779072761536
vn 1 0 0
vn 0 -0.30900901556015 -0.95105910301208
vn 0 0.30900901556015 -0.95105910301208
vn 0 0.80901300907135 -0.58779072761536
vn 0 1 0
vn 0 0.80901300907135 0.58779072761536
vn 0 0.30900901556015 0.95105910301208
vn 0 -0.30900901556015 0.95105910301208
vn 0 -0.80901300907135 0.58779072761536
# 12 normals

vt 0.5 0.5 0
vt 0 0.5 0
vt 0.09549150615931 0.79389262199402 0
vt 0 0 0
vt 0 1 0
vt 0.10000000149012 1 0
vt 0.10000000149012 0 0
vt 1 0.5 0
vt 0.90450847148895 0.79389262199402 0
vt 0.34549149870872 0.97552824020386 0
vt 0.20000000298023 1 0
vt 0.20000000298023 0 0
vt 0.65450847148895 0.97552824020386 0
vt 0.30000001192093 1 0
vt 0.30000001192093 0 0
vt 0.40000000596046 1 0
vt 0.40000000596046 0 0
vt 0.5 1 0
vt 0.5 0 0
vt 0.90450847148895 0.20610737800598 0
vt 0.60000002384186 1 0
vt 0.60000002384186 0 0
vt 0.09549150615931 0.20610737800598 0
vt 0.65450847148895 0.02447175979614 0
vt 0.69999998807907 1 0
vt 0.69999998807907 0 0
vt 0.34549149870872 0.02447175979614 0
vt 0.80000001192093 1 0
vt 0.80000001192093 0 0
vt 0.89999997615814 1 0
vt 0.89999997615814 0 0
vt 1 1 0
vt 1 0 0
# 33 texture coordinates

o 圆柱.4
usemtl default
f 5/3/1 3/2/1 1/1/1
f 5/7/3 6/6/3 4/5/2 3/4/2
f 6/9/4 2/1/4 4/8/4
f 7/10/1 5/3/1 1/1/1
f 7/12/5 8/11/5 6/6/3 5/7/3
f 8/13/4 2/1/4 6/9/4
f 9/13/1 7/10/1 1/1/1
f 9/15/6 10/14/6 8/11/5 7/12/5
f 10/10/4 2/1/4 8/13/4
f 11/9/1 9/13/1 1/1/1
f 11/17/7 12/16/7 10/14/6 9/15/6
f 12/3/4 2/1/4 10/10/4
f 13/8/1 11/9/1 1/1/1
f 13/19/8 14/18/8 12/16/7 11/17/7
f 14/2/4 2/1/4 12/3/4
f 15/20/1 13/8/1 1/1/1
f 15/22/9 16/21/9 14/18/8 13/19/8
f 16/23/4 2/1/4 14/2/4
f 17/24/1 15/20/1 1/1/1
f 17/26/10 18/25/10 16/21/9 15/22/9
f 18/27/4 2/1/4 16/23/4
f 19/27/1 17/24/1 1/1/1
f 19/29/11 20/28/11 18/25/10 17/26/10
f 20/24/4 2/1/4 18/27/4
f 21/23/1 19/27/1 1/1/1
f 21/31/12 22/30/12 20/28/11 19/29/11
f 22/20/4 2/1/4 20/24/4
f 3/2/1 21/23/1 1/1/1
f 3/33/2 4/32/2 22/30/12 21/31/12
f 4/8/4 2/1/4 22/20/4

v 2.99432373046875 2.59775924682617 -0.3558349609375
v 0.2718505859375 2.57202339172363 0.474609375
v -0.5794677734375 11.26631927490234 2.7030029296875
v 2.74017333984375 11.46364593505859 -0.71240234375
v 2.8636474609375 2.57675743103027 -0.7847900390625
v 0.01348876953125 2.59481620788574 0.1082763671875
v -0.90093994140625 11.314208984375 2.393310546875
v 2.4818115234375 11.4864387512207 -1.078857421875
# 8 vertices

vn 0.77026206254959 0.37959969043732 0.51244550943375
vn 0.0984393954277 -0.49494704604149 0.86332911252975
vn -0.00400003092363 0.42590951919556 0.90475690364838
vn 0.74395132064819 -0.58616715669632 0.32084971666336
vn -0.03878150507808 0.47209683060646 -0.88069325685501
vn -0.85639959573746 0.51629608869553 0.00425012223423
vn -0.74865412712097 -0.49861314892769 -0.43692326545715
vn 0.32678782939911 -0.56054258346558 -0.76092165708542
# 8 normals

vt 0.50763541460037 0.91278654336929 0
vt 0.12900340557098 0.72259420156479 0
vt 1 0.68832629919052 0
# 3 texture coordinates

o 布料曲面_0
usemtl default
f 25/36/15 24/35/14 26/34/13
f 24/35/14 23/5/16 26/34/13
f 28/35/19 29/36/18 30/34/17
f 27/5/20 28/35/19 30/34/17
f 30/34/17 29/36/18 25/36/15 26/34/13
f 29/36/18 28/35/19 24/35/14 25/36/15
f 28/35/19 27/5/20 23/5/16 24/35/14
f 27/5/20 30/34/17 26/34/13 23/5/16

v 2.99432373046875 1.25711441040039 -2.3079833984375
v 0.2718505859375 1.89035224914551 -1.7701416015625
v -0.5794677734375 9.05330848693848 -7.17822265625
v 2.74017333984375 6.50607299804688 -9.4620361328125
v 2.8636474609375 0.90864753723145 -2.55908203125
v 0.01348876953125 1.61808395385742 -2.016357421875
v -0.90093994140625 8.84106063842773 -7.4088134765625
v 2.4818115234375 6.23380661010742 -9.708251953125
# 8 vertices

vn 0.77026218175888 0.63732254505157 0.02271910943091
vn 0.09840899705887 0.36638522148132 0.92524456977844
vn -0.00400009518489 0.97292935848236 0.23106800019741
vn 0.74395340681076 -0.11462745070457 0.65832656621933
vn -0.03878210484982 -0.3941961824894 -0.91820764541626
vn -0.85641700029373 0.32522282004356 -0.40097379684448
vn -0.74865055084229 -0.65249103307724 0.11737900972366
vn 0.32678180932999 -0.94440793991089 -0.0361563116312
# 8 normals

# 0 texture coordinate

o 布料曲面_0_1
usemtl default
f 33/36/23 32/35/22 34/34/21
f 32/35/22 31/5/24 34/34/21
f 36/35/27 37/36/26 38/34/25
f 35/5/28 36/35/27 38/34/25
f 38/34/25 37/36/26 33/36/23 34/34/21
f 37/36/26 36/35/27 32/35/22 33/36/23
f 36/35/27 35/5/28 31/5/24 32/35/22
f 35/5/28 38/34/25 34/34/21 31/5/24

v 2.99432373046875 -1.10507392883301 -2.47705078125
v 0.2718505859375 -0.28970336914062 -2.63671875
v -0.5794677734375 -0.05193710327148 -11.60888671875
v 2.74017333984375 -3.42561531066895 -11.041259765625
v 2.8636474609375 -1.51860332489014 -2.361083984375
v 0.01348876953125 -0.65200805664062 -2.577392578125
v -0.90093994140625 -0.36449813842773 -11.586669921875
v 2.4818115234375 -3.78791999816895 -10.98193359375
# 8 vertices

vn 0.77026516199112 0.4151331782341 -0.48410329222679
vn 0.09843884408474 0.95182543992996 0.29041022062302
vn -0.00400014454499 0.78727841377258 -0.61658471822739
vn 0.74394637346268 0.44325530529022 0.50006848573685
vn -0.03878192231059 -0.96367293596268 -0.26425457000732
vn -0.85640227794647 -0.11072227358818 -0.50429725646973
vn -0.74864208698273 -0.31500720977783 0.58335709571838
vn 0.32681903243065 -0.61707484722137 0.71582680940628
# 8 normals

# 0 texture coordinate

o 布料曲面_2
usemtl default
f 41/36/31 40/35/30 42/34/29
f 40/35/30 39/5/32 42/34/29
f 44/35/35 45/36/34 46/34/33
f 43/5/36 44/35/35 46/34/33
f 46/34/33 45/36/34 41/36/31 42/34/29
f 45/36/34 44/35/35 40/35/30 41/36/31
f 44/35/35 43/5/36 39/5/32 40/35/30
f 43/5/36 46/34/33 42/34/29 39/5/32

v 2.99432373046875 -2.71002864837646 -0.735595703125
v 0.2718505859375 -2.32651805877686 -1.47265625
v -0.5794677734375 -9.19298553466797 -7.2525634765625
v 2.74017333984375 -10.85265636444092 -4.2611083984375
v 2.8636474609375 -2.87722492218018 -0.3399658203125
v 0.01348876953125 -2.50603580474854 -1.1524658203125
v -0.90093994140625 -9.37049198150635 -6.994384765625
v 2.4818115234375 -11.03217697143555 -3.9407958984375
# 8 vertices

vn 0.77025771141052 -0.11962619423866 -0.62641251087189
vn 0.09843998402357 0.8205206990242 -0.5630766749382
vn -0.00400006305426 0.00881263799965 -0.99995315074921
vn 0.7439381480217 0.66734433174133 -0.03475002944469
vn -0.03878244012594 -0.80746221542358 0.58864307403564
vn -0.85641741752625 -0.46328726410866 -0.22784671187401
vn -0.74863970279694 0.25966134667397 0.61001199483871
vn 0.32678863406181 0.17491021752357 0.92877101898193
# 8 normals

# 0 texture coordinate

o 布料曲面_3
usemtl default
f 49/36/39 48/35/38 50/34/37
f 48/35/38 47/5/40 50/34/37
f 52/35/43 53/36/42 54/34/41
f 51/5/44 52/35/43 54/34/41
f 54/34/41 53/36/42 49/36/39 50/34/37
f 53/36/42 52/35/43 48/35/38 49/36/39
f 52/35/43 51/5/44 47/5/40 48/35/38
f 51/5/44 54/34/41 50/34/37 47/5/40

v 2.99432373046875 -2.34918880462646 1.60498046875
v 0.2718505859375 -2.6863260269165 0.8455810546875
v -0.5794677734375 -11.4864387512207 2.6102294921875
v 2.74017333984375 -10.18233871459961 5.7730712890625
v 2.8636474609375 -2.14414978027344 1.9822998046875
v 0.01348876953125 -2.54787921905518 1.185546875
v -0.90093994140625 -11.39522647857666 2.9100341796875
v 2.4818115234375 -10.04388999938965 6.113037109375
# 8 vertices

vn 0.77026563882828 -0.56435519456863 -0.29697477817535
vn 0.09843968600035 0.07131408154964 -0.9925844669342
vn -0.0040001552552 -0.77631133794785 -0.63033694028854
vn 0.74395704269409 0.38891646265984 -0.54338926076889
vn -0.03878131136298 -0.04318756610155 0.99831402301788
vn -0.85640245676041 -0.46701496839523 0.22016331553459
vn -0.74863976240158 0.63882511854172 0.17731599509716
vn 0.32678705453873 0.83520233631134 0.4423203766346
# 8 normals

# 0 texture coordinate

o 布料曲面_4
usemtl default
f 57/36/47 56/35/46 58/34/45
f 56/35/46 55/5/48 58/34/45
f 60/35/51 61/36/50 62/34/49
f 59/5/52 60/35/51 62/34/49
f 62/34/49 61/36/50 57/36/47 58/34/45
f 61/36/50 60/35/51 56/35/46 57/36/47
f 60/35/51 59/5/52 55/5/48 56/35/46
f 59/5/52 62/34/49 58/34/45 55/5/48

v 2.99432373046875 -0.29427146911621 2.7822265625
v 0.2718505859375 -1.09818840026855 2.572265625
v -0.5794677734375 -5.20527839660645 10.552734375
v 2.74017333984375 -1.91941928863525 11.505126953125
v 2.8636474609375 0.12860488891602 2.857177734375
v 0.01348876953125 -0.74602699279785 2.676025390625
v -0.90093994140625 -4.91403198242188 10.6683349609375
v 2.4818115234375 -1.56725978851318 11.60888671875
# 8 vertices

vn 0.77026307582855 -0.58407241106033 0.25603559613228
vn 0.0984401255846 -0.73155075311661 -0.67464292049408
vn -0.00400000903755 -0.97684592008591 0.21390670537949
vn 0.74395972490311 -0.18234919011593 -0.64286291599274
vn -0.0387815721333 0.75356870889664 0.65622419118881
vn -0.85640615224838 -0.11903558671474 0.50239330530167
vn -0.74863809347153 0.53694689273834 -0.3888818025589
vn 0.3267922103405 0.86656039953232 -0.37720015645027
# 8 normals

# 0 texture coordinate

o 布料曲面_5
usemtl default
f 65/36/55 64/35/54 66/34/53
f 64/35/54 63/5/56 66/34/53
f 68/35/59 69/36/58 70/34/57
f 67/5/60 68/35/59 70/34/57
f 70/34/57 69/36/58 65/36/55 66/34/53
f 69/36/58 68/35/59 64/35/54 65/36/55
f 68/35/59 67/5/60 63/5/56 64/35/54
f 67/5/60 70/34/57 66/34/53 63/5/56

v 2.99432373046875 1.90732765197754 1.9095458984375
v 0.2718505859375 1.24199867248535 2.4072265625
v -0.5794677734375 4.92065048217773 10.593994140625
v 2.74017333984375 7.71394920349121 8.6187744140625
v 2.8636474609375 2.22960662841797 1.625732421875
v 0.01348876953125 1.54268646240234 2.196533203125
v -0.90093994140625 5.19261741638184 10.4383544921875
v 2.4818115234375 8.0146369934082 8.408203125
# 8 vertices

vn 0.77026027441025 -0.16397093236446 0.61628943681717
vn 0.09843845665455 -0.98357206583023 0.15131396055222
vn -0.00396882230416 -0.44178926944733 0.89711004495621
vn 0.74396032094955 -0.61630016565323 -0.25825792551041
vn -0.03875106945634 0.98290210962296 -0.18000496923923
vn -0.85640490055084 0.31854239106178 0.40632671117783
vn -0.7486407160759 0.03071939386427 -0.66226387023926
vn 0.32678914070129 0.24541218578815 -0.91267830133438
# 8 normals

# 0 texture coordinate

o 布料曲面_6
usemtl default
f 73/36/63 72/35/62 74/34/61
f 72/35/62 71/5/64 74/34/61
f 76/35/67 77/36/66 78/34/65
f 75/5/68 76/35/67 78/34/65
f 78/34/65 77/36/66 73/36/63 74/34/61
f 77/36/66 76/35/67 72/35/62 73/36/63
f 76/35/67 75/5/68 71/5/64 72/35/62
f 75/5/68 78/34/65 74/34/61 71/5/64

v -1.3062744140625 -0.09954261779785 0.0599365234375
v 4.29376220703125 -0.09954261779785 0.0599365234375
v -1.000732421875 1.71587944030762 0.0599365234375
v -0.10626220703125 3.40045738220215 0.0599365234375
v 1.4937744140625 3.40045738220215 0.0599365234375
v 3.09375 3.40045738220215 0.0599365234375
v 3.98825073242188 1.71587944030762 0.0599365234375
v -1.000732421875 1.18415451049805 1.3436279296875
v -0.10626220703125 2.37533187866211 2.5347900390625
v 1.4937744140625 2.37533187866211 2.5347900390625
v 3.09375 2.37533187866211 2.5347900390625
v 3.98825073242188 1.18415451049805 1.3436279296875
v -1.000732421875 -0.09954261779785 1.8753662109375
v -0.10626220703125 -0.09954261779785 3.5599365234375
v 1.4937744140625 -0.09954261779785 3.5599365234375
v 3.09375 -0.09954261779785 3.5599365234375
v 3.98825073242188 -0.09954261779785 1.8753662109375
v -1.000732421875 -1.38324069976807 1.3436279296875
v -0.10626220703125 -2.5744161605835 2.5347900390625
v 1.4937744140625 -2.5744161605835 2.5347900390625
v 3.09375 -2.5744161605835 2.5347900390625
v 3.98825073242188 -1.38324069976807 1.3436279296875
v -1.000732421875 -1.91496562957764 0.0599365234375
v -0.10626220703125 -3.59954166412354 0.0599365234375
v 1.4937744140625 -3.59954166412354 0.0599365234375
v 3.09375 -3.59954166412354 0.0599365234375
v 3.98825073242188 -1.91496562957764 0.0599365234375
v -1.000732421875 -1.38324069976807 -1.2237548828125
v -0.10626220703125 -2.5744161605835 -2.4149169921875
v 1.4937744140625 -2.5744161605835 -2.4149169921875
v 3.09375 -2.5744161605835 -2.4149169921875
v 3.98825073242188 -1.38324069976807 -1.2237548828125
v -1.000732421875 -0.09954261779785 -1.7554931640625
v -0.10626220703125 -0.09954261779785 -3.4400634765625
v 1.4937744140625 -0.09954261779785 -3.4400634765625
v 3.09375 -0.09954261779785 -3.4400634765625
v 3.98825073242188 -0.09954261779785 -1.7554931640625
v -1.000732421875 1.18415451049805 -1.2237548828125
v -0.10626220703125 2.37533187866211 -2.4149169921875
v 1.4937744140625 2.37533187866211 -2.4149169921875
v 3.09375 2.37533187866211 -2.4149169921875
v 3.98825073242188 1.18415451049805 -1.2237548828125
# 42 vertices

vn -0.9472993016243 0.32034987211227 0
vn -0.94729328155518 0.22653412818909 0.22653412818909
vn -0.88322860002518 0.46894270181656 0
vn -0.88322573900223 0.33159637451172 0.33159637451172
vn 0 0.92388850450516 0.38266184926033
vn 0.88320875167847 0.46898004412651 0
vn 0.9472993016243 0.32034987211227 0
vn 0.94729328155518 0.22653412818909 0.22653412818909
vn 0.88322573900223 0.33159637451172 0.33159637451172
vn -0.9472993016243 0 0.32034987211227
vn -0.88322860002518 0 0.46894270181656
vn 0 0.38268852233887 0.92387741804123
vn 0.9472993016243 0 0.32034987211227
vn 0.88320875167847 0 0.46898004412651
vn -0.94729328155518 -0.22653412818909 0.22653412818909
vn -0.88322573900223 -0.33159637451172 0.33159637451172
vn 0 -0.38268852233887 0.92387741804123
vn 0.94729328155518 -0.22653412818909 0.22653412818909
vn 0.88322573900223 -0.33159637451172 0.33159637451172
vn -0.9472993016243 -0.32034987211227 0
vn -0.88322860002518 -0.46894270181656 0
vn 0 -0.92388850450516 0.38266184926033
vn 0.9472993016243 -0.32034987211227 0
vn 0.88320875167847 -0.46898004412651 0
vn -0.94729328155518 -0.22653412818909 -0.22653412818909
vn -0.88322573900223 -0.33159637451172 -0.33159637451172
vn 0 -0.92388850450516 -0.38266184926033
vn 0.94729328155518 -0.22653412818909 -0.22653412818909
vn 0.88322573900223 -0.33159637451172 -0.33159637451172
vn -0.9472993016243 0 -0.32034987211227
vn -0.88322860002518 0 -0.46894270181656
vn 0 -0.38268852233887 -0.92387741804123
vn 0.9472993016243 0 -0.32034987211227
vn 0.88320875167847 0 -0.46898004412651
vn -0.94729328155518 0.22653412818909 -0.22653412818909
vn -0.88322573900223 0.33159637451172 -0.33159637451172
vn 0 0.38268852233887 -0.92387741804123
vn 0.94729328155518 0.22653412818909 -0.22653412818909
vn 0.88322573900223 0.33159637451172 -0.33159637451172
vn 0 0.92388850450516 -0.38266184926033
# 40 normals

vt 0.0625 0 0
vt 0 0.49114465713501 0
vt 0.125 0.49114465713501 0
vt 0.125 1 0
vt 0.125 0.5 0
vt 0.125 0 0
vt 0 0.50885540246964 0
vt 0.125 0.50885540246964 0
vt 0.0625 1 0
vt 0.1875 0 0
vt 0.25 0.49114465713501 0
vt 0.25 1 0
vt 0.25 0.5 0
vt 0.25 0 0
vt 0.25 0.50885540246964 0
vt 0.1875 1 0
vt 0.3125 0 0
vt 0.375 0.49114465713501 0
vt 0.375 1 0
vt 0.375 0.5 0
vt 0.375 0 0
vt 0.375 0.50885540246964 0
vt 0.3125 1 0
vt 0.4375 0 0
vt 0.5 0.49114465713501 0
vt 0.5 0.50885540246964 0
vt 0.4375 1 0
vt 0.5625 0 0
vt 0.625 0.49114465713501 0
vt 0.625 1 0
vt 0.625 0.5 0
vt 0.625 0 0
vt 0.625 0.50885540246964 0
vt 0.5625 1 0
vt 0.6875 0 0
vt 0.75 0.49114465713501 0
vt 0.75 1 0
vt 0.75 0.5 0
vt 0.75 0 0
vt 0.75 0.50885540246964 0
vt 0.6875 1 0
vt 0.8125 0 0
vt 0.875 0.49114465713501 0
vt 0.875 1 0
vt 0.875 0.5 0
vt 0.875 0 0
vt 0.875 0.50885540246964 0
vt 0.8125 1 0
vt 0.9375 0 0
vt 1 0.49114465713501 0
vt 1 0.50885540246964 0
vt 0.9375 1 0
# 52 texture coordinates

o 油桶.1
usemtl default
f 86/39/70 81/38/69 79/37/1
f 86/39/70 87/40/72 82/5/71 81/38/69
f 87/42/73 88/41/73 83/2/73 82/4/73
f 88/41/73 89/40/73 84/5/73 83/2/73
f 89/42/77 90/44/76 85/43/75 84/4/74
f 90/44/76 80/45/4 85/43/75
f 91/47/78 86/39/70 79/46/1
f 91/47/78 92/48/79 87/40/72 86/39/70
f 92/50/80 93/49/80 88/41/80 87/42/80
f 93/49/80 94/48/80 89/40/80 88/41/80
f 94/50/82 95/51/81 90/44/76 89/42/77
f 95/51/81 80/52/4 90/44/76
f 96/54/83 91/47/78 79/53/1
f 96/54/83 97/55/84 92/48/79 91/47/78
f 97/57/85 98/56/85 93/49/85 92/50/85
f 98/56/85 99/55/85 94/48/85 93/49/85
f 99/57/87 100/58/86 95/51/81 94/50/82
f 100/58/86 80/59/4 95/51/81
f 101/61/88 96/54/83 79/60/1
f 101/61/88 102/18/89 97/55/84 96/54/83
f 102/19/90 103/1/90 98/56/90 97/57/90
f 103/1/90 104/18/90 99/55/90 98/56/90
f 104/19/92 105/62/91 100/58/86 99/57/87
f 105/62/91 80/63/4 100/58/86
f 106/65/93 101/61/88 79/64/1
f 106/65/93 107/66/94 102/18/89 101/61/88
f 107/68/95 108/67/95 103/1/95 102/19/95
f 108/67/95 109/66/95 104/18/95 103/1/95
f 109/68/97 110/69/96 105/62/91 104/19/92
f 110/69/96 80/70/4 105/62/91
f 111/72/98 106/65/93 79/71/1
f 111/72/98 112/73/99 107/66/94 106/65/93
f 112/75/100 113/74/100 108/67/100 107/68/100
f 113/74/100 114/73/100 109/66/100 108/67/100
f 114/75/102 115/76/101 110/69/96 109/68/97
f 115/76/101 80/77/4 110/69/96
f 116/79/103 111/72/98 79/78/1
f 116/79/103 117/80/104 112/73/99 111/72/98
f 117/82/105 118/81/105 113/74/105 112/75/105
f 118/81/105 119/80/105 114/73/105 113/74/105
f 119/82/107 120/83/106 115/76/101 114/75/102
f 120/83/106 80/84/4 115/76/101
f 81/86/69 116/79/103 79/85/1
f 81/86/69 82/32/71 117/80/104 116/79/103
f 82/33/108 83/8/108 118/81/108 117/82/108
f 83/8/108 84/32/108 119/80/108 118/81/108
f 84/33/74 85/87/75 120/83/106 119/82/107
f 85/87/75 80/88/4 120/83/106

